<svg id="Capa_1" data-name="Capa 1" xmlns="http://www.w3.org/2000/svg" viewBox="0 0 388.1 388.14"><defs><style>.cls-1{fill:#d2d2d2;}.cls-2{fill:#707070;}</style></defs><path class="cls-1" d="M489.87,459.45c.43,106.52-86.65,194-193.88,194-105.87,0-193.87-84.79-194.22-193.64-.35-107.78,85.14-191.39,188-194.41C400.85,262.11,489.93,351.2,489.87,459.45ZM272.05,409c-.07-15.12-.18-15.62-5.5-25.56a55.22,55.22,0,1,0-96.72,53.26c10.8,18.9,33.2,29.61,54.83,27.32C249.36,461.37,275.15,436.25,272.05,409Zm57.78,137c-.18,22.49,18.46,41.49,41,41.44,21.48,0,40.53-17,41.2-39.18.73-24.52-17.89-43.62-42.5-43.56C348.06,504.69,330,523.26,329.83,545.94ZM355.37,375c.57,16.05,9.67,25.18,24.64,24.73,13.22-.4,23.64-11.23,23.14-24.19-.46-11.79-9.55-24.06-25-23.71C364.92,352.14,354.69,363.41,355.37,375ZM236.79,532.45c-7.56,0-13.88,6.29-13.79,13.64a13.84,13.84,0,0,0,13.83,13.59c7.38-.11,13.76-6.79,13.63-14.27A13.35,13.35,0,0,0,236.79,532.45Zm43,73.86c.13-3.39-3.24-7.1-6.47-7.13-2.93,0-6.6,3.57-6.79,6.65-.22,3.47,3.27,7.45,6.54,7.46S279.65,609.84,279.78,606.31ZM425.39,462a6.9,6.9,0,0,0-6.92,6.55c-.08,3.54,3.36,6.64,7.48,6.71,3.51.06,5.63-2.13,5.71-5.92C431.75,465.06,429.16,462,425.39,462ZM307.14,329.58c0-3.49-3.31-7.25-6.39-7.22-3.37,0-7.18,3.65-7.27,6.9s3.33,6.18,6.93,6.21S307.14,332.85,307.14,329.58ZM162.08,511c3.94,0,7.18-2.79,7.16-6.23,0-3.07-3.55-6.31-6.93-6.36-3.62-.05-7.13,3.14-7.08,6.42C155.28,508.26,158.23,510.92,162.08,511Zm145.84-59.32c.08,4.16,3.22,7.85,6.57,7.71a7.18,7.18,0,0,0,6.47-7.16c0-3.7-2.82-6-7.25-5.95C309.84,446.29,307.85,448.14,307.92,451.64Z" transform="translate(-101.77 -265.28)"/><path class="cls-2" d="M272.05,409c3.1,27.29-22.69,52.41-47.39,55-21.63,2.29-44-8.42-54.83-27.32a55.22,55.22,0,1,1,96.72-53.26C271.87,393.34,272,393.84,272.05,409Zm-55.21-35.4c-17.53-1.87-35,18-35,34.8,0,20.29,17.28,36.46,35.23,36.38,20-.1,35.52-14.59,36.26-33.5C254.14,389.73,238.47,372.72,216.84,373.56Z" transform="translate(-101.77 -265.28)"/><path class="cls-2" d="M329.83,545.94c.18-22.68,18.23-41.25,39.68-41.3,24.61-.06,43.23,19,42.5,43.56-.67,22.17-19.72,39.13-41.2,39.18C348.29,587.43,329.65,568.43,329.83,545.94Zm19.51.24c-.07,12.05,9.05,21.86,20.41,22,13.55.12,22.75-8.86,22.92-22.35a21.47,21.47,0,0,0-21.55-21.88C358.66,523.88,349.41,533.33,349.34,546.18Z" transform="translate(-101.77 -265.28)"/><path class="cls-2" d="M355.37,375c-.68-11.59,9.55-22.86,22.82-23.17,15.41-.35,24.5,11.92,25,23.71.5,13-9.92,23.79-23.14,24.19C365,400.18,355.94,391.05,355.37,375Z" transform="translate(-101.77 -265.28)"/><path class="cls-2" d="M236.79,532.45a13.35,13.35,0,0,1,13.67,13c.13,7.48-6.25,14.16-13.63,14.27A13.84,13.84,0,0,1,223,546.09C222.91,538.74,229.23,532.5,236.79,532.45Z" transform="translate(-101.77 -265.28)"/><path class="cls-2" d="M279.78,606.31c-.13,3.53-3.46,7-6.72,7s-6.76-4-6.54-7.46c.19-3.08,3.86-6.68,6.79-6.65C276.54,599.21,279.91,602.92,279.78,606.31Z" transform="translate(-101.77 -265.28)"/><path class="cls-2" d="M425.39,462c3.77,0,6.36,3,6.27,7.34-.08,3.79-2.2,6-5.71,5.92-4.12-.07-7.56-3.17-7.48-6.71A6.9,6.9,0,0,1,425.39,462Z" transform="translate(-101.77 -265.28)"/><path class="cls-2" d="M307.14,329.58c0,3.27-3.05,5.93-6.73,5.89s-7-3.08-6.93-6.21,3.9-6.87,7.27-6.9C303.83,322.33,307.15,326.09,307.14,329.58Z" transform="translate(-101.77 -265.28)"/><path class="cls-2" d="M162.08,511c-3.85,0-6.8-2.7-6.85-6.17,0-3.28,3.46-6.47,7.08-6.42,3.38.05,6.91,3.29,6.93,6.36C169.26,508.17,166,511,162.08,511Z" transform="translate(-101.77 -265.28)"/><path class="cls-2" d="M307.92,451.64c-.07-3.5,1.92-5.35,5.79-5.4,4.43-.05,7.23,2.25,7.25,5.95a7.18,7.18,0,0,1-6.47,7.16C311.14,459.49,308,455.8,307.92,451.64Z" transform="translate(-101.77 -265.28)"/><path class="cls-2" d="M216.78,371.41c23.41-.9,40.37,17.15,39.46,40-.8,20.06-17.6,35.43-39.25,35.53-19.42.09-38.17-17.06-38.12-38.59C178.9,390.51,197.81,369.43,216.78,371.41Z" transform="translate(-101.77 -265.28)"/><path class="cls-2" d="M344,546.22c.09-16.32,11.6-28.33,27.12-28.31,15.09,0,27,12.39,26.83,27.8-.21,17.15-11.66,28.55-28.54,28.41C355.3,574,343.94,561.54,344,546.22Z" transform="translate(-101.77 -265.28)"/></svg>